<?xml version="1.0" encoding="utf-8"?>
<!-- Generator: Adobe Illustrator 28.3.0, SVG Export Plug-In . SVG Version: 6.00 Build 0)  -->
<svg version="1.1" id="Layer_1" xmlns="http://www.w3.org/2000/svg" xmlns:xlink="http://www.w3.org/1999/xlink" x="0px" y="0px"
	 viewBox="0 0 160 160" style="enable-background:new 0 0 160 160;" xml:space="preserve">
<style type="text/css">
	.st0{fill:#1D593C;}
	.st1{fill:#578C13;}
	.st2{fill:#83B92A;}
	.st3{fill:#F8AACA;}
</style>
<path class="st0" d="M113.78,110.65c-0.14,0-0.28-0.08-0.34-0.21c-0.09-0.19-0.01-0.41,0.18-0.5c3.47-1.68,6.94-4.48,9.76-7.89
	c2.49-3.01,4.33-6.35,4.92-8.93c0.05-0.2,0.25-0.33,0.45-0.28c0.2,0.05,0.33,0.25,0.28,0.45c-1.25,5.44-7.38,13.61-15.09,17.33
	C113.89,110.64,113.83,110.65,113.78,110.65z"/>
<path class="st0" d="M116.17,102.7c-1.74,0-3.34-0.18-4.45-0.58c-0.2-0.07-0.3-0.29-0.23-0.48c0.07-0.2,0.29-0.3,0.48-0.23
	c1.47,0.53,4.14,0.68,6.97,0.39c2.74-0.28,5.05-0.93,5.88-1.65c0.16-0.14,0.4-0.12,0.53,0.04c0.14,0.16,0.12,0.4-0.04,0.53
	C123.92,101.93,119.77,102.7,116.17,102.7z"/>
<path class="st1" d="M122.55,103.65c0,0,0.36,5.95-2.25,9.27c-2.68,3.41-8.55,5.84-12.01-0.05c-2.28-3.87,1.74-8.19,5.5-8.92
	C118.31,103.07,122.55,103.65,122.55,103.65z"/>
<path class="st2" d="M121.25,101.75c0,0-2.66,3.97-5.94,4.82c-3.37,0.87-8.25-0.42-7.63-5.86c0.51-4.48,4.9-5.23,7.65-3.87
	C118.65,98.47,121.25,101.75,121.25,101.75z"/>
<g>
	<path d="M9.73,85.36c-0.33,0.05-3.78,0.03-4.08,0.05c-0.59,0.79-1.68,3.98-1.99,5.13c-0.05,0.18-0.56,1.58-0.59,1.76
		c0,0.03-0.18,1.38-0.18,2.09c0,0.51,0.54,1.12,1,1.12c0.66,0,1.05-0.1,1.53-0.25c0.77-0.46,1.61-1.25,1.94-1.58
		c0.48-0.66,0.97-1.38,1.4-2.04c0.18-0.25,0.15-0.23,0.38-0.23c0.33,0,0.38,0.2,0.38,0.46c0,0.1,0,0.23-0.03,0.33
		c-0.18,0.71-0.66,1.66-1.28,2.3c-0.48,0.51-0.97,1.1-1.79,1.53c-0.48,0.33-1.58,0.71-2.32,0.71c-1.84,0-2.55-1.38-2.55-2.98
		c0-0.15,0.15-1.25,0.15-1.4c0.2-0.82,1.35-3.57,1.56-4.39c0.13-0.46,0.77-1.89,0.94-2.55c-0.23,0.03-1.07,0.08-1.3,0
		c-0.18-0.05-1.2-0.26-1.2-0.74c0-0.43,0.59-0.56,0.89-0.59c0.77-0.05,1.58,0.08,2.12-0.03c0.03-0.03,0.79-1.43,1.02-1.94l0.71-1.74
		l0.74-1.45c0.15-0.28,0.77-1.63,1.38-1.63c0.28,0,0.66,0.2,0.66,0.54c0,0.59-0.69,1.38-0.94,1.89l-2.07,4.31
		c0.59,0.03,2.81,0,3.93,0c0.23,0,0.59,0.38,0.59,0.59C10.75,85.05,10.03,85.31,9.73,85.36z"/>
	<path d="M19.63,92.2c-0.18,0.71-0.66,1.66-1.28,2.3c-0.77,0.82-2.37,2.07-3.57,2.07c-2.45,0-2.3-1.48-1.66-3.21
		c0.43-1.17,0.79-2.37,1.33-3.5V89.7c0-0.08,0-0.28-0.15-0.28c-0.05,0-0.26,0.1-0.28,0.13c-0.66,0.56-1.53,1.17-2.12,1.84
		c-0.77,0.87-1.68,1.89-2.25,2.86c-0.56,0.97-0.59,1.35-1.1,2.35c-0.41,0.08-0.84,0.28-1.28,0.28c-0.23,0-0.33-0.1-0.33-0.36
		c0-0.03,0.77-1.71,1.48-3.52c0.77-1.96,1.35-3.65,1.48-4.03c-0.05-0.84,0.51-0.79,0.74-1.45c0.1-0.33,0.79-2.4,0.89-2.76
		c0.38-1.33,2.5-7.6,4.67-7.6c1.22,0,1.38,1.2,1.38,2.17c0,2.58-2.37,6.4-4.31,8.06c-0.48,0.41-1.3,1-1.91,1.38
		c-0.23,0.61-1.05,1.81-1.05,2.86L11,90.72c0.87-0.92,2.93-3.21,4.21-3.21c0.18,0,0.97-0.03,1,0.36c0.08,1.73-1.58,4.34-1.99,5.61
		c-0.41,1.25-0.59,1.99,0.77,1.99c0.61,0,2.12-1.4,2.53-1.81c0.41-0.43,0.64-1.05,1.38-2.02c0.18-0.25,0.15-0.23,0.38-0.23
		c0.33,0,0.38,0.2,0.38,0.46C19.65,91.97,19.65,92.1,19.63,92.2z M16,78.75c-1.05,0-4.03,7.37-4.03,8.19c0.74,0,1.99-1.86,2.32-2.47
		c0.54-1.05,2.09-3.7,2.09-5.08C16.39,79.16,16.36,78.75,16,78.75z"/>
	<path d="M27.38,92.2c-0.18,0.71-0.66,1.66-1.25,2.3c-1.15,1.2-2.55,2.12-4.23,2.12c-0.77,0-1.73-0.15-2.42-0.66
		c-0.74-0.51-1.22-1.43-1.2-2.25c0.08-1.66,0.59-3.42,1.84-4.95c0.82-1,1.96-1.81,3.37-1.81c0.79,0,1.48,0.61,1.48,1.4
		c0,0.92-0.38,1.76-1,2.47c-0.61,0.69-1.4,1.25-2.27,1.63c-0.43,0.2-1.58,0.71-2.12,0.92c-0.05,0.23-0.08,0.43-0.03,0.66
		c0.03,0.31,0.43,0.87,0.84,1.07c0.05,0.03,0.64,0.46,1.51,0.46c1.35-0.15,2.45-0.92,3.39-1.91c0.41-0.43,0.64-1.05,1.35-2.02
		c0.2-0.25,0.15-0.23,0.41-0.23c0.31,0,0.38,0.2,0.38,0.46C27.44,91.97,27.41,92.1,27.38,92.2z M23.33,88.14
		c-0.82,0.1-1.58,0.51-2.12,1.07c-0.69,0.69-1.43,1.74-1.45,2.55c-0.03,0.13-0.18,0.43-0.03,0.41c0.92-0.15,1.91-0.87,2.5-1.28
		c0.66-0.49,1.17-1.12,1.61-2.09c0.03-0.03,0.03-0.13,0.03-0.15C23.89,88.47,23.56,88.09,23.33,88.14z"/>
</g>
<g>
	<path d="M15.36,102.82h1.9v10.21h-1.9v-1.6c-0.61,1.29-2.25,1.86-3.39,1.86c-2.56,0-4.13-1.71-4.11-4.57v-5.9h1.9v5.86
		c0,1.73,1.03,2.82,2.45,2.82s3.13-0.85,3.15-3.06V102.82z"/>
	<path d="M27.13,102.95l-0.31,1.79c-0.55-0.26-1.09-0.35-1.49-0.35c-2.03,0-2.84,2.21-2.84,4.9v3.74h-1.92v-10.21h1.92v2.32
		c0.52-1.79,1.51-2.58,2.86-2.58C26.08,102.56,26.82,102.75,27.13,102.95z"/>
	<path d="M39.68,107.91c0,3.21-2.32,5.38-5.12,5.38c-1.46,0-2.95-0.7-3.63-1.86v1.6h-1.9V97.26h1.9v7.15
		c0.68-1.2,2.12-1.86,3.65-1.86C37.38,102.56,39.68,104.68,39.68,107.91z M37.75,107.89c0-2.06-1.49-3.54-3.37-3.54
		c-1.66,0-3.46,1.33-3.46,3.54c0,2.19,1.64,3.61,3.46,3.61C36.27,111.5,37.75,109.92,37.75,107.89z"/>
	<path d="M50.37,102.82h1.9v10.21h-1.9v-1.81c-0.68,1.22-2.1,2.08-3.74,2.08c-2.67,0-5.01-2.25-5.01-5.38
		c0-3.02,2.21-5.36,5.09-5.36c1.53,0,2.97,0.66,3.65,1.86V102.82z M50.37,107.91c0-2.1-1.77-3.56-3.48-3.56
		c-1.86,0-3.35,1.64-3.35,3.56c0,1.95,1.49,3.59,3.37,3.59C48.73,111.5,50.37,109.99,50.37,107.91z"/>
	<path d="M65,107.13v5.9h-1.9v-5.79c0-1.71-1.05-2.8-2.47-2.8s-3.13,0.85-3.13,3.06v5.53h-1.9v-10.21h1.9v1.55
		c0.61-1.25,2.27-1.81,3.39-1.81C63.43,102.56,65.03,104.26,65,107.13z"/>
	<path d="M81.78,102.82h1.9v8.79c0,4.83-2.19,6.65-5.55,6.65c-1.86,0-3.59-0.94-4.59-2.73l1.62-0.85c0.63,1.16,1.84,1.79,2.97,1.79
		c2.25,0,3.65-1.27,3.65-4.72v-0.31c-0.68,1.16-2.17,1.86-3.63,1.86c-2.8,0-5.12-2.17-5.12-5.38c0-3.24,2.3-5.36,5.09-5.36
		c1.53,0,2.97,0.68,3.65,1.86V102.82z M81.78,107.89c0-2.21-1.79-3.54-3.48-3.54c-1.86,0-3.35,1.49-3.35,3.54
		c0,2.03,1.49,3.61,3.35,3.61C80.14,111.5,81.78,110.08,81.78,107.89z"/>
	<path d="M95.05,102.82h1.9v10.21h-1.9v-1.81c-0.68,1.22-2.1,2.08-3.74,2.08c-2.67,0-5.01-2.25-5.01-5.38
		c0-3.02,2.21-5.36,5.09-5.36c1.53,0,2.97,0.66,3.65,1.86V102.82z M95.05,107.91c0-2.1-1.77-3.56-3.48-3.56
		c-1.86,0-3.35,1.64-3.35,3.56c0,1.95,1.49,3.59,3.37,3.59C93.41,111.5,95.05,109.99,95.05,107.91z"/>
	<path d="M106.84,102.95l-0.31,1.79c-0.55-0.26-1.09-0.35-1.49-0.35c-2.03,0-2.84,2.21-2.84,4.9v3.74h-1.92v-10.21h1.92v2.32
		c0.52-1.79,1.51-2.58,2.86-2.58C105.79,102.56,106.54,102.75,106.84,102.95z"/>
	<path d="M116.47,97.26h1.9v15.77h-1.9v-1.6c-0.68,1.16-2.17,1.86-3.63,1.86c-2.8,0-5.12-2.17-5.12-5.38c0-3.24,2.3-5.36,5.09-5.36
		c1.53,0,2.97,0.66,3.65,1.86V97.26z M116.47,107.89c0-2.21-1.79-3.54-3.48-3.54c-1.86,0-3.35,1.49-3.35,3.54
		c0,2.03,1.49,3.61,3.35,3.61C114.83,111.5,116.47,110.08,116.47,107.89z"/>
	<path d="M131.29,108.74h-8.31c0.28,1.82,1.6,2.76,3.35,2.76c1.25,0,2.38-0.57,2.97-1.6l1.64,0.66c-0.87,1.77-2.71,2.73-4.68,2.73
		c-2.91,0-5.25-2.17-5.25-5.4s2.34-5.33,5.25-5.33s5.07,2.1,5.07,5.33C131.34,108.17,131.31,108.46,131.29,108.74z M129.43,107.1
		c-0.24-1.75-1.49-2.75-3.17-2.75c-1.73,0-2.95,0.92-3.26,2.75H129.43z"/>
	<path d="M143.34,107.13v5.9h-1.9v-5.79c0-1.71-1.05-2.8-2.47-2.8s-3.13,0.85-3.13,3.06v5.53h-1.9v-10.21h1.9v1.55
		c0.61-1.25,2.27-1.81,3.39-1.81C141.77,102.56,143.37,104.26,143.34,107.13z"/>
</g>
<path class="st1" d="M143.59,112.73c0,0-2.85,8.58-0.71,13.49c2,4.57,7.25,8.46,13.29,4.12c4.9-3.52,3.78-11.41-0.66-14.62
	C151.09,112.53,143.59,112.73,143.59,112.73z"/>
<path class="st0" d="M131.12,41.88c-0.17,0-0.33-0.12-0.37-0.29c-0.56-2.38-1.91-4.23-4.01-5.49c-3.44-2.06-8.24-2.13-11.47-1.28
	c-0.2,0.05-0.41-0.07-0.46-0.27c-0.05-0.2,0.07-0.41,0.27-0.46c3.39-0.89,8.43-0.82,12.05,1.36c2.28,1.37,3.75,3.37,4.36,5.96
	c0.05,0.2-0.08,0.41-0.28,0.45C131.18,41.88,131.15,41.88,131.12,41.88z"/>
<path class="st0" d="M128.51,71.36c0,0-3.22,1.55-5.65,0.86c-2.5-0.71-5.16-3.4-2.7-6.67c2.03-2.7,5.14-1.51,6.4,0.4
	C128.07,68.26,128.51,71.36,128.51,71.36z"/>
<path class="st0" d="M127.6,36.05c0,0,3.51,0.67,5.05,2.67c1.59,2.06,2.13,5.8-1.79,6.97c-3.23,0.96-5.03-1.84-4.9-4.13
	C126.11,38.81,127.6,36.05,127.6,36.05z"/>
<path class="st1" d="M84.37,55.06c0,0,5.26-3.2,10.53-2.05c4.09,0.89,9.01,3.95,7.69,9.23c-1.08,4.33-4.67,4.63-8.15,3.49
	C88.36,63.73,84.37,55.06,84.37,55.06z"/>
<path class="st1" d="M92.84,76.49c0,0,6.45-0.43,10.96,2.5c3.51,2.28,7.03,6.88,3.93,11.36c-2.54,3.66-7.45,2.56-10.3,0.26
	C92.45,86.59,92.84,76.49,92.84,76.49z"/>
<path class="st1" d="M128.37,70.63c0,0,1.1,6.5-1.37,10.47c-2.54,4.07-8.67,7.41-13.22,1.38c-3.75-4.97-0.06-9.89,3.99-11.14
	C122.64,69.82,128.37,70.63,128.37,70.63z"/>
<path class="st2" d="M135.85,138.4c0,0,7.4,4.16,8.65,8.36c1.29,4.32,0.79,12.19-6.27,11.61c-4.64-0.38-7.9-5.43-6.22-11.97
	C133.2,141.77,135.85,138.4,135.85,138.4z"/>
<path class="st2" d="M46.93,33.2c0,0,1.16-6.72,3.79-10.9c2.05-3.25,5.29-4.74,7.64-1.66c2.08,2.72,1.17,5.47-1.13,7.51
	C53.58,31.37,46.93,33.2,46.93,33.2z"/>
<path class="st2" d="M111.33,56.15c0,0-7.59,2.2-11.51,6.55c-3.05,3.39-3.44,9.18,0.7,11.2c3.89,1.89,7.19-0.5,8.77-3.79
	C111.8,64.9,111.33,56.15,111.33,56.15z"/>
<path class="st2" d="M46.13,45.75c0,0-0.63-6.57-2.19-10.56c-1.79-4.58-7.5-5.38-9.77-0.4C30.52,42.83,46.13,45.75,46.13,45.75z"/>
<path class="st2" d="M46.2,23.76c0,0-5.38-2.49-8.07-6.58c-2.77-4.21-3.15-10.57,4.58-12.26c6.38-1.4,9.44,4.27,8.87,8.67
	C50.89,18.9,46.2,23.76,46.2,23.76z"/>
<path class="st2" d="M89.7,78.86c0,0,5.99,3.13,8.83,7.95c2.92,4.95,3,12.21-5.91,13.71c-7.34,1.23-10.52-5.39-9.62-10.37
	C84.09,84.12,89.7,78.86,89.7,78.86z"/>
<path class="st2" d="M71.15,28.61c0,0,4.97-0.3,8.59,1.66c3.72,2.01,6.53,6.57,1.48,10.9c-4.17,3.57-8.69,0.59-10.01-2.89
	C69.61,34.07,71.15,28.61,71.15,28.61z"/>
<path class="st2" d="M96.48,19.1c0,0,5.62,0.27,8.82-2.32c3.29-2.66,5.26-7.83-0.5-11.16c-4.75-2.75-8.57,1.1-9.27,4.39
	C94.6,14.41,96.48,19.1,96.48,19.1z"/>
<path class="st0" d="M140.29,154.61C140.29,154.61,140.28,154.61,140.29,154.61c-0.21-0.11-0.38-0.23-0.38-0.43
	c0.05-3.97-0.66-7.63-2.17-11.12c-1.35-3.12-3.21-5.88-5-8.53c-2.94-4.33-5.97-8.82-6.98-15.15c-1.22-7.7-0.13-12.79,1.14-18.67
	c1.46-6.8,3.12-14.51,1.25-28.25c-1.63-12-4.53-22.13-8.6-30.11c-5.66-11.11-13.61-18.04-23.62-20.6
	c-11.33-2.9-20.96,1.48-27.05,5.67c-5.66,3.9-10.72,9.28-14.64,15.57c-3.76,6.04-6.21,12.61-6.88,18.5
	c-0.02,0.21-0.21,0.36-0.42,0.33c-0.21-0.02-0.36-0.21-0.33-0.42c0.69-5.99,3.17-12.67,6.99-18.81c3.97-6.38,9.11-11.84,14.85-15.8
	c6.21-4.28,16.06-8.75,27.66-5.78c10.22,2.62,18.33,9.68,24.1,20.99c4.11,8.06,7.03,18.27,8.67,30.35
	c1.89,13.88,0.21,21.65-1.26,28.51c-1.25,5.81-2.33,10.83-1.13,18.39c0.98,6.16,3.97,10.57,6.86,14.84c3.65,5.38,7.41,11,7.3,20.1
	C140.66,154.39,140.49,154.61,140.29,154.61z"/>
<path class="st0" d="M90.52,97.1c-0.2,0-0.36-0.15-0.38-0.35c-0.12-1.74-0.19-3.83-0.28-6.24c-0.5-13.64-1.33-36.47-12.01-42.09
	c-3.94-2.08-8.25-2.24-12.44-0.48c-5.28,2.22-9.68,7.31-11.47,13.28c-0.06,0.2-0.27,0.31-0.47,0.25c-0.2-0.06-0.31-0.27-0.25-0.47
	c1.85-6.18,6.42-11.45,11.9-13.76c4.41-1.85,8.94-1.68,13.09,0.51c2.61,1.38,4.83,3.81,6.58,7.24c1.5,2.92,2.71,6.67,3.6,11.14
	c1.64,8.17,1.98,17.52,2.23,24.35c0.09,2.41,0.16,4.48,0.28,6.22c0.01,0.21-0.14,0.39-0.35,0.4C90.54,97.1,90.53,97.1,90.52,97.1z"
	/>
<path class="st0" d="M152.18,128.99c-0.2,0-0.36-0.15-0.38-0.35c-0.32-4.71-1.88-8.57-4.92-12.14c-2.72-3.2-6.29-5.78-10.07-8.5
	c-9.39-6.78-20.02-14.45-20.63-34.65c-0.27-9.13-2.49-18.87-6.24-27.41c-4.05-9.24-9.45-16.15-15.62-20
	c-3.16-1.97-6.49-3.1-9.9-3.35c-3.67-0.27-7.47,0.47-11.29,2.2c-0.19,0.09-0.41,0-0.5-0.19c-0.09-0.19,0-0.41,0.19-0.5
	c3.94-1.78,7.86-2.55,11.66-2.26c3.53,0.26,6.98,1.43,10.25,3.47c6.29,3.93,11.8,10.96,15.91,20.34c3.79,8.63,6.03,18.47,6.3,27.7
	c0.27,8.86,2.51,16.03,6.85,21.92c3.83,5.19,8.73,8.73,13.47,12.15c7.5,5.41,14.58,10.52,15.3,21.21c0.01,0.21-0.14,0.39-0.35,0.4
	C152.2,128.99,152.19,128.99,152.18,128.99z"/>
<path class="st0" d="M40.62,62.01c-0.08,0-0.17-0.03-0.24-0.09c-0.16-0.13-0.18-0.37-0.05-0.53c3.54-4.26,5.77-12.96,6.12-23.87
	c0.33-10.37-1.08-20.83-3.79-27.99c-0.07-0.19,0.02-0.41,0.22-0.49c0.19-0.07,0.41,0.02,0.49,0.22c2.74,7.24,4.17,17.81,3.84,28.28
	c-0.36,11.07-2.65,19.94-6.29,24.32C40.83,61.97,40.73,62.01,40.62,62.01z"/>
<path class="st3" d="M50.19,95.52L50.19,95.52c-13.54,0-24.52-10.98-24.52-24.52V55.65H74.7V71C74.7,84.54,63.73,95.52,50.19,95.52z
	"/>
<path class="st0" d="M46.93,33.57c-0.06,0-0.11-0.01-0.17-0.04c-0.19-0.09-0.26-0.32-0.17-0.5c1.45-2.97,2.62-4.92,8.01-7.61
	c0.19-0.09,0.41-0.02,0.51,0.17c0.09,0.19,0.02,0.41-0.17,0.51c-5.44,2.71-6.42,4.72-7.67,7.27C47.2,33.5,47.07,33.57,46.93,33.57z"
	/>
<path class="st0" d="M46.13,46.13c-0.04,0-0.09-0.01-0.13-0.02c-2.23-0.83-6.27-4.04-7.61-9.16c-0.05-0.2,0.07-0.41,0.27-0.46
	c0.2-0.05,0.41,0.07,0.46,0.27c1.42,5.43,5.74,8.13,7.14,8.65c0.2,0.07,0.3,0.29,0.22,0.49C46.43,46.04,46.29,46.13,46.13,46.13z"/>
<path class="st0" d="M77.4,39.09c-0.19,0-0.36-0.15-0.38-0.34c-0.41-4.21-2.16-7.61-4.66-9.09c-1.81-1.08-3.98-1.13-6.28-0.16
	c-0.19,0.08-0.41-0.01-0.49-0.2c-0.08-0.19,0.01-0.41,0.2-0.49c2.53-1.07,4.94-0.99,6.96,0.21c2.71,1.61,4.59,5.23,5.02,9.67
	c0.02,0.21-0.13,0.39-0.34,0.41C77.42,39.09,77.41,39.09,77.4,39.09z"/>
<path class="st0" d="M89.26,20.85c-0.21,0-0.38-0.17-0.38-0.38c0-0.21,0.17-0.38,0.38-0.38c3.31,0,6.1-0.73,8.3-2.16
	c1.7-1.1,3.08-2.66,4.12-4.62c0.1-0.18,0.33-0.25,0.51-0.16c0.18,0.1,0.25,0.33,0.16,0.51C99.83,18.43,95.42,20.85,89.26,20.85z"/>
<path class="st0" d="M104.21,69.19c-0.03,0-0.06,0-0.1-0.01c-0.2-0.05-0.32-0.26-0.27-0.46c1.57-6.02,3.5-10.13,9.17-14.55
	c0.16-0.13,0.4-0.1,0.53,0.07c0.13,0.16,0.1,0.4-0.07,0.53c-5.5,4.29-7.37,8.29-8.9,14.15C104.53,69.08,104.37,69.19,104.21,69.19z"
	/>
<path class="st2" d="M128.06,117.87c0,0,7.9,0.07,12.84,3.21c3.85,2.44,5.78,7.92,2.34,10.97c-3.23,2.87-7.06,1.45-9.47-1.29
	C129.95,126.42,128.06,117.87,128.06,117.87z"/>
<path class="st0" d="M138.32,128.52c-0.13,0-0.26-0.07-0.33-0.19c-3.05-5.24-5.93-8.58-12.38-11.23c-0.19-0.08-0.28-0.3-0.21-0.49
	c0.08-0.19,0.3-0.28,0.49-0.21c6.65,2.74,9.61,6.17,12.75,11.55c0.1,0.18,0.04,0.41-0.14,0.52
	C138.45,128.5,138.39,128.52,138.32,128.52z"/>
<path class="st1" d="M108.69,34.54c0,0,2.46,5.46,1.76,10.35c-0.54,3.8-3.37,6.96-7.06,5.78c-3.57-1.13-3.3-4.52-2.04-7.31
	C103.37,38.92,108.69,34.54,108.69,34.54z"/>
<path class="st2" d="M103.94,27.88c0,0,3.14,7.38,1.33,12.76c-1.86,5.53-8.15,11.21-15.23,5.36c-5.83-4.82-2.86-11.67,1.57-14.29
	C96.95,28.54,103.94,27.88,103.94,27.88z"/>
<path class="st2" d="M121.02,30.74c0,0,4.13-3.16,8.01-3.07c3.99,0.08,8.97,3.03,6.6,8.84c-1.96,4.79-7.03,4.24-9.64,1.89
	C122.83,35.55,121.02,30.74,121.02,30.74z"/>
<path class="st2" d="M135.68,59.18c0,0,4.73,0.42,7.15,3.07c2.49,2.73,3.93,8.06-0.98,10.37c-4.05,1.91-6.96-1.87-7.24-5.2
	C134.26,63.41,135.68,59.18,135.68,59.18z"/>
<path class="st2" d="M131.72,88.05c0,0,5.48-1.4,8.97,0.5c3.25,1.76,5.98,5.28,2.39,9.47c-2.91,3.4-7.48,2.09-9.57-1.4
	C131.43,93.16,131.72,88.05,131.72,88.05z"/>
<path class="st0" d="M99.05,41.02c-0.08,0-0.16-0.03-0.23-0.08c-0.17-0.13-0.2-0.36-0.07-0.53c2.91-3.83,6.9-9.07,3.49-16.37
	c-0.09-0.19-0.01-0.41,0.18-0.5c0.19-0.09,0.41-0.01,0.5,0.18c1.59,3.4,1.82,6.66,0.7,9.95c-0.97,2.86-2.8,5.26-4.27,7.19
	C99.28,40.97,99.17,41.02,99.05,41.02z"/>
<path class="st0" d="M108.33,40.22c-0.02,0-0.04,0-0.07-0.01c-0.21-0.04-0.34-0.23-0.31-0.44c0.95-5.38,0.05-9.09-1.7-13.35
	c-0.08-0.19,0.01-0.41,0.2-0.49c0.19-0.08,0.41,0.01,0.49,0.2c1.81,4.38,2.73,8.21,1.75,13.76
	C108.67,40.09,108.51,40.22,108.33,40.22z"/>
<path class="st0" d="M96.03,60.82c-0.11,0-0.22-0.05-0.29-0.14c-3.1-3.79-7.51-4.78-11.41-5.25c-0.21-0.02-0.35-0.21-0.33-0.42
	c0.02-0.21,0.21-0.35,0.42-0.33c4.06,0.48,8.64,1.52,11.91,5.52c0.13,0.16,0.11,0.4-0.05,0.53C96.2,60.79,96.12,60.82,96.03,60.82z"
	/>
<path class="st0" d="M98.63,83.04c-0.14,0-0.28-0.08-0.34-0.22c-0.95-2.02-2.46-3.83-4.37-5.23c-2.11-1.54-3.95-2.08-4.65-2.24
	c-0.2-0.05-0.33-0.25-0.28-0.45c0.05-0.2,0.25-0.33,0.45-0.28c2.43,0.56,7.17,2.85,9.53,7.88c0.09,0.19,0.01,0.41-0.18,0.5
	C98.73,83.03,98.68,83.04,98.63,83.04z"/>
<path class="st0" d="M120.02,80.35c-0.06,0-0.12-0.01-0.17-0.04c-0.19-0.1-0.26-0.32-0.16-0.51c1.7-3.26,4.7-6.63,8.45-9.47
	c0.17-0.13,0.4-0.09,0.53,0.07c0.13,0.17,0.09,0.4-0.07,0.53c-3.67,2.77-6.59,6.05-8.24,9.21
	C120.29,80.28,120.16,80.35,120.02,80.35z"/>
<path class="st1" d="M128.68,127.47c0,0,3.63,5.51,2.96,10.13c-0.69,4.75-4.95,10.28-11.54,6.59c-5.43-3.04-4.03-9.03-0.84-11.8
	C123.11,129.03,128.68,127.47,128.68,127.47z"/>
<path class="st0" d="M124.8,139.75c-0.01,0-0.02,0-0.02,0c-0.21-0.01-0.37-0.19-0.35-0.4c0.24-3.67,1.63-7.96,3.93-12.07
	c0.1-0.18,0.33-0.25,0.51-0.15c0.18,0.1,0.25,0.33,0.15,0.51c-2.24,4.02-3.6,8.19-3.83,11.75C125.16,139.6,125,139.75,124.8,139.75z
	"/>
<path class="st2" d="M83.87,59.54c0,0,1.99,8.97-1.89,14.35c-2.67,3.69-9.51,5.31-12.36,1.69c-2.68-3.4-2.49-7.57,0.7-10.86
	C74.35,60.57,83.87,59.54,83.87,59.54z"/>
<path class="st0" d="M77.1,71.31c-0.11,0-0.22-0.05-0.29-0.14c-0.13-0.16-0.11-0.4,0.05-0.53c0.02-0.01,1.81-1.49,3.58-4.14
	C82.06,64.06,84,60.1,84,55.06c0-0.21,0.17-0.38,0.38-0.38c0.21,0,0.38,0.17,0.38,0.38c0,5.24-2.01,9.36-3.7,11.89
	c-1.83,2.74-3.64,4.22-3.71,4.29C77.27,71.29,77.18,71.31,77.1,71.31z"/>
<path class="st0" d="M139.09,65c-0.14,0-0.27-0.08-0.34-0.21c-3.96-8.12-8.84-10.06-14.48-12.3c-0.22-0.09-0.45-0.18-0.67-0.27
	c-0.19-0.08-0.29-0.3-0.21-0.49c0.08-0.19,0.3-0.29,0.49-0.21c0.22,0.09,0.45,0.18,0.67,0.27c5.79,2.3,10.78,4.29,14.88,12.67
	c0.09,0.19,0.01,0.41-0.17,0.5C139.2,64.99,139.15,65,139.09,65z"/>
<path class="st0" d="M129.12,33.91c-0.08,0-0.16-0.02-0.23-0.08c-4.15-3.15-9.14-3.5-15.25-1.08c-0.19,0.08-0.41-0.02-0.49-0.21
	c-0.08-0.19,0.02-0.41,0.21-0.49c1.65-0.65,4.18-1.53,7.09-1.63c3.3-0.11,6.29,0.84,8.9,2.81c0.17,0.13,0.2,0.36,0.07,0.53
	C129.35,33.85,129.24,33.91,129.12,33.91z"/>
<path class="st0" d="M137.99,94.01c-0.07,0-0.15-0.02-0.21-0.06c-5.19-3.5-6.45-5.3-8.71-10.63c-0.08-0.19,0.01-0.41,0.2-0.49
	c0.19-0.08,0.41,0.01,0.49,0.2c2.18,5.15,3.29,6.84,8.43,10.3c0.17,0.12,0.22,0.35,0.1,0.52C138.23,93.95,138.12,94.01,137.99,94.01
	z"/>
</svg>
